<?xml version="1.0" encoding="UTF-8" standalone="no"?><!DOCTYPE svg PUBLIC "-//W3C//DTD SVG 1.1//EN" "http://www.w3.org/Graphics/SVG/1.1/DTD/svg11.dtd"><svg width="100%" height="100%" viewBox="0 0 50 54" version="1.1" xmlns="http://www.w3.org/2000/svg" xmlns:xlink="http://www.w3.org/1999/xlink" xml:space="preserve" xmlns:serif="http://www.serif.com/" style="fill-rule:evenodd;clip-rule:evenodd;stroke-linejoin:round;stroke-miterlimit:1.41421;"><path d="M4.706,52.104c-0.423,-0.915 -0.986,-2.183 -1.268,-2.817l-0.422,-1.197l-1.409,1.549l-1.408,1.55l-0.141,-2.958c-0.211,-4.226 0.141,-8.592 0.845,-11.69c1.62,-6.902 6.69,-13.169 13.24,-16.479l1.478,-0.704l-0.352,-1.057c-0.211,-0.563 -0.422,-1.76 -0.493,-2.535l-0.14,-1.479l-1.479,-0.141c-2.254,-0.211 -3.451,-0.845 -4.226,-2.465c-0.422,-0.845 -0.422,-0.985 -0.281,-3.239c0.14,-2.958 0.352,-3.592 1.267,-4.577c1.127,-1.268 1.902,-1.479 4.719,-1.338c2.042,0.14 2.464,0.211 3.38,0.633c0.563,0.282 1.056,0.564 1.127,0.564c0.07,0 0.704,-0.775 1.478,-1.831l1.338,-1.902l0.846,0.493c0.492,0.282 1.056,0.634 1.338,0.775l0.493,0.282l-0.423,1.056c-0.211,0.563 -0.493,1.549 -0.563,2.042l-0.141,0.986l1.197,0.141c4.296,0.423 7.535,3.028 8.732,6.972c0.352,1.267 0.352,3.732 0,4.929c-0.352,1.127 -0.352,1.198 -0.07,1.198c0.493,0 3.803,1.619 5.141,2.464c2.605,1.691 5.634,4.648 7.324,7.183c3.169,4.719 4.507,9.86 3.943,15.493c-0.281,3.381 -0.915,6.057 -2.042,8.662l-0.422,0.986l-1.761,0l-1.761,0l0.846,-1.69c0.915,-1.831 1.619,-4.366 1.971,-6.62c0.212,-1.549 0.282,-5.774 0.071,-6.549l-0.141,-0.493l-0.916,0.986c-2.253,2.465 -5.563,3.169 -10,1.972c-3.802,-0.986 -5.352,-1.197 -8.943,-1.197c-2.747,0 -3.662,0.07 -5.141,0.422c-4.085,0.916 -6.972,2.254 -10.986,5.141c-1.479,1.056 -2.676,1.902 -2.746,1.902c-0.071,0 0.14,-0.705 0.422,-1.62c0.282,-0.916 0.775,-2.395 1.056,-3.38l0.564,-1.761l-0.634,0.634c-0.352,0.352 -1.338,1.338 -2.183,2.253l-1.479,1.62l0.352,1.338c0.423,1.761 1.409,3.944 2.465,5.563c0.422,0.705 0.775,1.268 0.775,1.338c0,0.071 -0.846,0.071 -1.831,0.071l-1.831,0l-0.775,-1.479Zm6.197,-17.042c3.38,-3.592 6.127,-6.479 6.197,-6.479c0.071,0.07 -0.281,1.127 -0.633,2.324c-2.324,7.324 -2.817,8.732 -2.747,8.803c0,0 0.845,-0.282 1.761,-0.634c5.986,-2.606 12.957,-2.958 20.352,-0.986c3.31,0.845 4.577,0.845 6.197,0c0.915,-0.493 1.267,-0.775 1.69,-1.479c0.775,-1.197 0.845,-2.887 0.352,-4.437c-1.197,-3.38 -5.845,-7.746 -10.211,-9.647c-2.254,-0.986 -2.394,-0.986 -2.887,-0.493l-0.423,0.422l1.831,2.254c0.986,1.197 2.042,2.535 2.183,2.887c0.423,0.845 0.493,2.183 0.071,3.028c-0.564,1.197 -2.254,2.042 -3.592,1.761c-0.563,-0.141 -0.775,-0.071 -1.338,0.352c-1.549,1.127 -3.239,0.845 -4.648,-0.845c-1.127,-1.268 -1.408,-1.902 -1.479,-3.169c0,-0.634 -0.211,-1.409 -0.352,-1.69c-0.211,-0.423 -0.282,-0.916 -0.282,-1.55l0.071,-0.986l-0.916,-0.211c-1.267,-0.352 -2.746,-1.056 -3.591,-1.69c-0.423,-0.282 -0.775,-0.563 -0.916,-0.563c-0.141,0 -1.056,0.422 -2.042,0.915c-6.831,3.521 -11.268,10.071 -11.972,17.465c-0.07,0.704 -0.141,1.62 -0.211,1.972l-0.071,0.634l0.775,-0.775c0.352,-0.352 3.451,-3.592 6.831,-7.183Zm18.24,-5.212c0.633,-0.492 1.197,-0.915 1.338,-0.915c0.07,0 0.281,0.211 0.493,0.493c0.352,0.563 0.985,0.563 1.267,0.07c0.211,-0.352 0.211,-0.422 -3.944,-5.493c-2.464,-3.028 -2.957,-3.521 -3.309,-3.521c-0.845,0.071 -0.634,0.705 0.704,2.324l1.267,1.55l-0.704,0.563c-0.774,0.704 -0.845,0.845 -0.352,1.268c0.352,0.352 0.423,0.281 1.127,-0.212l0.775,-0.493l0.492,0.423c0.282,0.211 0.423,0.563 0.423,0.634c0,0.14 -0.563,0.633 -1.197,1.197c-0.634,0.493 -1.127,1.056 -1.127,1.197c0,0.211 0.352,0.775 0.986,1.549c0.211,0.423 0.563,0.282 1.761,-0.634Zm-7.254,-10c0.423,-1.267 1.831,-2.253 3.239,-2.253c0.775,0 1.902,0.634 2.677,1.479l0.704,0.845l0.634,-0.775c1.76,-1.972 1.971,-4.718 0.563,-7.112c-1.056,-1.761 -3.028,-2.817 -5.775,-3.099c-1.479,-0.141 -1.831,-0.282 -2.605,-1.056l-0.564,-0.564l-0.281,0.423c-0.564,0.845 -1.761,3.591 -2.113,4.648c-0.493,1.619 -0.282,4.155 0.352,5.422c0.634,1.197 2.324,2.817 2.817,2.606c0.07,0.07 0.211,-0.211 0.352,-0.564Zm-6.268,-9.577c0.141,-0.352 0.493,-1.268 0.846,-1.972c0.352,-0.704 0.633,-1.408 0.633,-1.62c0,-0.633 -0.704,-0.915 -2.605,-1.056c-1.69,-0.141 -1.831,-0.07 -2.183,0.282c-0.282,0.282 -0.423,0.634 -0.423,1.127c0,0.422 -0.07,1.197 -0.141,1.831c-0.141,1.478 0.071,1.76 1.549,1.971c2.184,0.141 2.113,0.141 2.324,-0.563Zm-2.183,-1.69c0,-1.197 0.141,-1.338 1.127,-1.338l0.916,0l0,1.972l-0.986,0l-0.986,0l0,-0.634l-0.071,0Zm4.437,41.056c-0.423,-0.422 -0.563,-0.704 -0.563,-1.408c0,-1.338 0.774,-2.113 2.042,-2.113c1.197,0 2.042,0.845 2.042,2.042c0,1.268 -0.775,1.972 -2.113,2.043c-0.704,0 -0.986,-0.141 -1.408,-0.564Zm13.592,0.211c-1.62,-1.267 -0.775,-3.732 1.267,-3.732c1.268,0 1.972,0.775 2.042,2.113c0,0.774 -0.07,0.986 -0.563,1.408c-0.493,0.423 -0.704,0.564 -1.408,0.564c-0.634,0 -1.057,-0.141 -1.338,-0.353Z" style="fill:#34495e;fill-rule:nonzero;"/></svg>